<?xml version="1.0" encoding="UTF-8"?>
<!-- Generated by Pixelmator Pro 3.6.2 -->
<svg width="1969" height="1969" viewBox="0 0 1969 1969" xmlns="http://www.w3.org/2000/svg">
    <linearGradient id="linearGradient1" x1="1385.99692" y1="1440.461633" x2="524.265364" y2="231.651924" gradientUnits="userSpaceOnUse">
        <stop offset="0" stop-color="#033857" stop-opacity="1"/>
        <stop offset="0.211821" stop-color="#0380a7" stop-opacity="1"/>
        <stop offset="0.514911" stop-color="#2aafaf" stop-opacity="1"/>
        <stop offset="1" stop-color="#1eb100" stop-opacity="1"/>
    </linearGradient>
    <path id="Shape" fill="url(#linearGradient1)" fill-rule="evenodd" stroke="#2b2b31" stroke-width="50" stroke-linecap="round" stroke-linejoin="round" d="M 1319.110352 798 C 1308.166626 776.6875 1302.031982 765.775024 1298.417358 760 C 1294.802734 754.224976 1288.280396 744.550049 1283.923462 738.5 C 1279.566406 732.449951 1272.632446 723.449951 1268.514648 718.5 C 1264.396851 713.550049 1254.384033 702.809814 1246.263916 694.632935 C 1238.143799 686.456055 1226.854736 675.881104 1221.177124 671.132935 C 1215.499634 666.384888 1205.374634 658.574341 1198.677124 653.776367 C 1191.979736 648.978394 1180.875 641.709717 1174 637.623779 C 1167.125 633.537964 1155.930298 627.418945 1149.122803 624.026001 C 1142.315308 620.633057 1131.740234 615.801147 1125.622803 613.288574 C 1119.505249 610.775879 1109.324951 606.967407 1103 604.825195 C 1096.675049 602.682983 1086.550049 599.603638 1080.5 597.982178 C 1074.449951 596.360718 1064.075684 593.932007 1057.445923 592.584961 C 1050.816162 591.237915 1038.893433 589.317749 1030.950928 588.317871 C 1019.682129 586.899292 1009.478882 586.5 984.5 586.5 C 959.521118 586.5 949.317871 586.899292 938.049011 588.317871 C 930.106567 589.317749 918.183838 591.237915 911.554077 592.584961 C 904.924316 593.932007 894.549988 596.360718 888.5 597.982178 C 882.450012 599.603638 872.325012 602.682983 866 604.825195 C 859.674988 606.967407 849.494751 610.775879 843.377258 613.288574 C 837.259705 615.801147 826.684753 620.633057 819.877258 624.026001 C 813.069763 627.418945 801.875 633.537964 795 637.623779 C 788.125 641.709717 777.020264 648.978394 770.322815 653.776367 C 763.625366 658.574341 753.500366 666.384888 747.822815 671.132935 C 742.145264 675.881104 730.856262 686.456055 722.736084 694.632935 C 714.615967 702.809814 704.603088 713.550049 700.485352 718.5 C 696.367554 723.449951 689.433655 732.449951 685.076599 738.5 C 680.719543 744.550049 674.195679 754.224976 670.579102 760 C 666.962585 765.775024 660.58136 777.181763 656.398743 785.348267 C 652.216064 793.514893 646.779907 804.989868 644.318481 810.848267 C 641.856995 816.706787 637.831543 827.349976 635.373047 834.5 C 632.914551 841.650024 629.582581 852.449951 627.968628 858.5 C 626.354675 864.550049 623.932007 874.924316 622.584961 881.554077 C 621.237915 888.183838 619.317749 900.106567 618.317932 908.049072 C 616.899292 919.317871 616.5 929.521118 616.5 954.5 C 616.5 979.478882 616.899292 989.682129 618.317932 1000.950989 C 619.317749 1008.893433 621.237915 1020.816162 622.584961 1027.445923 C 623.932007 1034.075684 626.354675 1044.449951 627.968628 1050.5 C 629.582581 1056.550049 632.914551 1067.349976 635.373047 1074.5 C 637.831543 1081.650024 641.856995 1092.293213 644.318481 1098.151733 C 646.779907 1104.010132 652.216064 1115.485107 656.398743 1123.651733 C 660.58136 1131.818359 666.962585 1143.224976 670.579102 1149 C 674.195679 1154.775024 680.719543 1164.449951 685.076599 1170.5 C 689.433655 1176.550049 696.367554 1185.550049 700.485352 1190.5 C 704.603088 1195.449951 714.615967 1206.190186 722.736084 1214.367065 C 730.856262 1222.543945 742.145264 1233.118896 747.822815 1237.867065 C 753.500366 1242.615234 763.625366 1250.425659 770.322815 1255.223633 C 777.020264 1260.021729 788.125 1267.290283 795 1271.376221 C 801.875 1275.462036 813.069763 1281.581055 819.877258 1284.973999 C 826.684753 1288.366943 837.259705 1293.19873 843.377258 1295.711426 C 849.494751 1298.224121 859.674988 1302.032715 866 1304.174805 C 872.325012 1306.317139 882.450012 1309.396362 888.5 1311.017822 C 894.549988 1312.63916 904.924316 1315.067993 911.554077 1316.415039 C 918.183838 1317.762085 930.106567 1319.682251 938.049011 1320.682129 C 949.317871 1322.100708 959.521118 1322.5 984.5 1322.5 C 1009.478882 1322.5 1019.682129 1322.100708 1030.950928 1320.682129 C 1038.893433 1319.682251 1050.816162 1317.762085 1057.445923 1316.415039 C 1064.075684 1315.067993 1074.449951 1312.645264 1080.5 1311.031372 C 1086.550049 1309.41748 1097.349976 1306.085449 1104.5 1303.626953 C 1111.650024 1301.168457 1122.293213 1297.143066 1128.151733 1294.681519 C 1134.010132 1292.220093 1145.485107 1286.783936 1153.651733 1282.601318 C 1161.818237 1278.418701 1173.224976 1272.037354 1179 1268.420898 C 1184.775024 1264.804321 1194.449951 1258.280518 1200.5 1253.92334 C 1206.550049 1249.566406 1215.550049 1242.632446 1220.5 1238.514648 C 1225.449951 1234.396973 1236.190186 1224.384033 1244.367065 1216.263916 C 1252.543945 1208.143799 1263.118896 1196.854736 1267.867065 1191.177246 C 1272.615112 1185.499634 1280.428101 1175.374634 1285.229248 1168.677246 C 1290.030273 1161.979736 1297.455322 1150.563843 1301.729248 1143.308594 C 1306.003174 1136.053223 1311.650513 1126.040771 1314.278809 1121.058594 L 1319.057739 1112 L 1425.096191 1112 C 1531.134766 1112 1531.134766 1112 1530.440552 1114.25 C 1530.058838 1115.487549 1527.035156 1124.599976 1523.721436 1134.5 C 1520.407593 1144.400024 1517.501221 1153.439209 1517.262695 1154.58728 C 1516.899414 1156.335938 1520.777832 1159.49353 1541.164551 1174.046875 C 1554.549072 1183.601807 1575.400024 1198.533325 1587.5 1207.228271 C 1599.599976 1215.923218 1611.013794 1224.361572 1612.863892 1225.980347 C 1615.701294 1228.462891 1616.155151 1229.437988 1615.76355 1232.21167 C 1615.508179 1234.020264 1608.563477 1247.199951 1600.330811 1261.5 C 1592.098145 1275.800049 1577.571167 1301 1568.048462 1317.5 C 1558.525879 1334 1549.543945 1349.293701 1548.088501 1351.486084 C 1546.633057 1353.678467 1544.321899 1355.866211 1542.952637 1356.347656 C 1540.898438 1357.070068 1536.35791 1355.387573 1516.981567 1346.723267 C 1504.06665 1340.948364 1480 1330.032104 1463.5 1322.465088 C 1447 1314.897949 1432.519287 1308.660156 1431.320801 1308.603271 C 1429.727539 1308.527832 1426.881348 1311.191895 1420.73645 1318.510254 C 1416.113647 1324.015869 1407.371948 1333.924072 1401.310425 1340.52832 C 1395.248901 1347.132813 1385.161865 1357.426758 1378.894775 1363.403809 C 1372.627686 1369.380981 1361.951172 1379.035767 1355.169312 1384.858887 C 1344.458618 1394.055542 1342.896973 1395.778564 1343.283203 1397.973267 C 1343.527832 1399.363037 1354.642578 1424.574951 1367.982788 1454 C 1381.322998 1483.425049 1392.953125 1509.404297 1393.827759 1511.731689 C 1395.333374 1515.738525 1395.313721 1516.102539 1393.458862 1518.582642 C 1392.38147 1520.023193 1381.599976 1526.938843 1369.5 1533.950684 C 1357.400024 1540.962524 1330.849976 1556.295654 1310.5 1568.024414 C 1290.150024 1579.753174 1272.063232 1589.542114 1270.307251 1589.777466 C 1267.910767 1590.098755 1266.537598 1589.618774 1264.801025 1587.852783 C 1263.528564 1586.558716 1253.280884 1572.675049 1242.028442 1557 C 1230.775879 1541.324951 1215.35083 1519.949951 1207.750366 1509.5 C 1200.150024 1499.050049 1192.862427 1489.193359 1191.555786 1487.596436 C 1189.180054 1484.692993 1189.180054 1484.692993 1166.340088 1492.297119 C 1153.778076 1496.479248 1136.300049 1501.744385 1127.5 1503.997192 C 1118.699951 1506.250122 1102.949951 1509.790894 1092.5 1511.865723 C 1073.5 1515.638062 1073.5 1515.638062 1072.718628 1520.569092 C 1072.288818 1523.281006 1069.482666 1550.474976 1066.482666 1581 C 1063.482666 1611.525024 1060.771729 1637.987549 1060.458252 1639.805786 C 1060.144897 1641.624023 1059.01355 1643.98645 1057.944214 1645.055786 C 1056.055054 1646.944824 1053.987671 1647 985 1647 C 916.012268 1647 913.944885 1646.944824 912.055786 1645.055786 C 910.98645 1643.98645 909.855103 1641.624023 909.541687 1639.805786 C 909.228271 1637.987549 906.517334 1611.525024 903.517334 1581 C 900.517334 1550.474976 897.711182 1523.281006 897.281433 1520.569092 C 896.5 1515.638062 896.5 1515.638062 877.5 1511.865723 C 867.049988 1509.790894 851.479004 1506.294434 842.897827 1504.095703 C 834.316589 1501.896851 816.620056 1496.599365 803.572205 1492.323486 C 779.848816 1484.54895 779.848816 1484.54895 777.899353 1487.024536 C 776.827148 1488.385986 772.889648 1493.550049 769.149353 1498.5 C 765.409058 1503.449951 750.239746 1524.375 735.43988 1545 C 720.639954 1565.625 707.485718 1583.558716 706.208191 1584.852783 C 704.465637 1586.617798 703.088013 1587.098511 700.692749 1586.777222 C 698.936707 1586.541748 684 1578.566895 667.5 1569.05542 C 651 1559.543945 625.799988 1545.028442 611.5 1536.798828 C 597.200012 1528.569214 583.704407 1520.616943 581.509766 1519.127197 C 579.315125 1517.637451 577.122498 1515.289551 576.637146 1513.909546 C 575.898682 1511.809692 578.229553 1505.908325 590.929565 1477.723633 C 599.275696 1459.201294 610.405579 1434.473633 615.662659 1422.773315 C 620.919739 1411.072998 625.432617 1399.925049 625.691284 1398 C 626.149963 1394.58667 625.856384 1394.240967 613.830811 1384.036011 C 607.048828 1378.280762 593.586121 1365.680786 583.913635 1356.036011 C 574.241089 1346.391113 560.384338 1331.525024 553.120789 1323 C 541.999695 1309.94751 539.486877 1307.507324 537.207153 1307.546143 C 535.718201 1307.571411 511.325012 1318.086914 483 1330.913818 C 454.674988 1343.740723 429.595734 1354.951538 427.268311 1355.82666 C 423.26059 1357.333618 422.898773 1357.314209 420.432281 1355.458984 C 418.999908 1354.381592 411.306671 1342.25 403.336212 1328.5 C 395.365753 1314.75 379.839722 1287.7854 368.833893 1268.578613 C 352.219055 1239.583252 348.898865 1233.142456 349.268433 1230.62439 C 349.534027 1228.814697 350.880402 1226.692871 352.606781 1225.363281 C 354.198059 1224.137695 365.399994 1216.000732 377.5 1207.28125 C 389.600006 1198.561523 411.357971 1182.952393 425.851044 1172.593872 C 450.596191 1154.908203 452.167816 1153.600098 451.639862 1151.130127 C 451.330627 1149.683594 449.234039 1143.099976 446.980774 1136.5 C 444.727509 1129.900024 440.941681 1117.75 438.56781 1109.5 C 436.19397 1101.25 432.839294 1088.199951 431.113007 1080.5 C 429.386719 1072.800049 426.961304 1061.099976 425.723175 1054.5 C 423.472076 1042.5 423.472076 1042.5 418.486023 1041.718506 C 415.743713 1041.288818 388.524994 1038.482666 358 1035.482666 C 327.475006 1032.482666 301.01239 1029.771729 299.194214 1029.458252 C 297.376038 1029.144897 295.01355 1028.01355 293.944214 1026.944214 C 292.055115 1025.055176 292 1022.987732 292 954 C 292 885.012329 292.055115 882.944946 293.944214 881.055786 C 295.01355 879.98645 297.376038 878.855103 299.194214 878.541748 C 301.01239 878.228271 327.475006 875.517334 358 872.517334 C 388.524994 869.517334 415.718933 866.711182 418.430969 866.281372 C 423.361938 865.5 423.361938 865.5 427.134277 846.5 C 429.209076 836.050049 432.748688 820.300049 435.000122 811.5 C 437.251526 802.699951 442.607605 784.952881 446.902527 772.06189 C 454.711456 748.623779 454.711456 748.623779 451.618713 745.79895 C 449.917694 744.245239 439.970123 736.776855 429.51297 729.202393 C 419.055847 721.628052 397.674988 706.224121 382 694.971558 C 366.325012 683.719116 352.441284 673.471436 351.147278 672.198975 C 349.381256 670.462402 348.901276 669.089233 349.222534 666.692749 C 349.457916 664.936768 359.246765 646.849976 370.975525 626.5 C 382.704315 606.150024 398.037506 579.599976 405.049347 567.5 C 412.061157 555.400024 418.976746 544.61853 420.417358 543.541138 C 422.898468 541.685547 423.259796 541.666138 427.268311 543.175171 C 429.595734 544.05127 456.014801 555.868652 485.977295 569.436157 C 515.939819 583.00354 541.314392 594.193237 542.365234 594.302124 C 543.680664 594.438354 548.027039 590.294556 556.317749 581 C 562.940796 573.574951 575.366211 560.493408 583.92981 551.929688 C 592.493408 543.366089 605.575012 531.100952 613 524.67395 C 620.424988 518.246948 626.899536 512.392456 627.387878 511.66394 C 627.990662 510.764648 619.521912 490.956299 601.013428 449.974609 C 577.908081 398.814453 573.886536 389.224854 574.639465 387.083862 C 575.128052 385.69458 577.321594 383.366943 579.513916 381.911499 C 581.706238 380.456055 596.775024 371.609619 613 362.252563 C 629.224976 352.89563 654.424988 338.366943 669 329.966675 C 683.575012 321.566284 696.979736 314.486084 698.788269 314.232788 C 701.55896 313.844727 702.541077 314.301758 705.02771 317.136108 C 706.650818 318.986206 716.954102 333.008667 727.923889 348.296997 C 738.893616 363.585327 755.210876 386.437012 764.184448 399.078369 C 780.215515 421.661987 780.554932 422.054932 783.651611 421.610229 C 785.38501 421.361328 795.933716 418.170166 807.093201 414.518677 C 818.252686 410.867188 834.38446 406.085693 842.941589 403.893188 C 851.498718 401.700562 867.049988 398.209106 877.5 396.134277 C 896.5 392.361938 896.5 392.361938 897.281433 387.43103 C 897.711182 384.718994 900.517334 357.525024 903.517334 327 C 906.517334 296.474976 909.228271 270.012451 909.541687 268.194214 C 909.855103 266.376099 910.98645 264.01355 912.055786 262.944214 C 913.944885 261.055054 916.012268 261 985 261 C 1053.987671 261 1056.055054 261.055054 1057.944214 262.944214 C 1059.01355 264.01355 1060.144897 266.376099 1060.458252 268.194214 C 1060.771729 270.012451 1063.482666 296.474976 1066.482666 327 C 1069.482666 357.525024 1072.288818 384.743774 1072.718628 387.486084 C 1073.5 392.472046 1073.5 392.472046 1085.5 394.723145 C 1092.099976 395.961304 1103.800049 398.386719 1111.5 400.113037 C 1119.199951 401.839355 1132.25 405.193726 1140.5 407.567261 C 1148.75 409.940918 1161.574951 413.966064 1169 416.512207 C 1176.425049 419.058228 1183.693237 421.222168 1185.151611 421.320679 C 1187.528564 421.481445 1189.571899 419.037598 1204.875488 397.731079 C 1214.265137 384.658203 1231.069092 361.258179 1242.217529 345.731079 C 1253.366089 330.203979 1263.528564 316.441284 1264.801025 315.147339 C 1266.549316 313.369385 1267.894531 312.904419 1270.307251 313.244019 C 1272.063232 313.491089 1285.425049 320.566284 1300 328.966675 C 1314.574951 337.366943 1339.775024 351.89563 1356 361.252563 C 1372.224976 370.609619 1387.293701 379.456055 1389.486084 380.911499 C 1391.678467 382.366943 1393.869507 384.687622 1394.355225 386.068604 C 1395.093018 388.166748 1392.997559 393.544189 1381.606201 418.783936 C 1374.108643 435.396484 1361.873657 462.534546 1354.417236 479.090942 C 1346.960938 495.647339 1341.069214 509.737915 1341.324585 510.403442 C 1341.579956 511.06897 1347.79895 516.760132 1355.144409 523.050415 C 1362.48999 529.34082 1375.974487 541.915283 1385.110107 550.993774 C 1394.245605 560.072144 1406.600464 573.056396 1412.565186 579.847534 C 1423.103394 591.845825 1423.50647 592.179443 1426.813599 591.642822 C 1428.685425 591.339111 1436.805542 588.218506 1444.858398 584.70813 C 1452.911255 581.197754 1477.706299 570.098511 1499.958374 560.043091 C 1533.878784 544.714966 1540.820923 541.902588 1542.917725 542.640015 C 1544.293213 543.123779 1546.637573 545.315186 1548.127319 547.509766 C 1549.617065 549.704346 1557.569214 563.199951 1565.798828 577.5 C 1574.028442 591.800049 1588.543823 617 1598.05542 633.5 C 1607.648438 650.141479 1615.544678 664.964233 1615.78833 666.78833 C 1616.157104 669.547974 1615.687012 670.549561 1612.863892 673.019653 C 1611.013794 674.638306 1599.478394 683.158447 1587.229858 691.953247 C 1574.981201 700.747925 1553.831177 715.890625 1540.229858 725.603516 C 1526.628418 735.316406 1515.129883 743.596802 1514.67749 744.004272 C 1514.225098 744.411621 1517.430542 755.264893 1521.800659 768.122559 C 1526.170898 780.980103 1530.064209 792.962524 1530.452637 794.75 C 1531.158936 798 1531.158936 798 1425.134644 798 L 1319.110352 798 Z"/>
    <path id="Oval" fill="none" stroke="#2b2b31" stroke-width="60" stroke-linecap="round" stroke-linejoin="round" d="M 1124 954 C 1124 877.232422 1061.767578 815 985 815 C 908.232422 815 846 877.232422 846 954 C 846 1030.767578 908.232422 1093 985 1093 C 1061.767578 1093 1124 1030.767578 1124 954 Z"/>
</svg>
